<?xml version="1.0" encoding="iso-8859-1"?>
<!DOCTYPE svg PUBLIC "-//W3C//DTD SVG 1.1//EN" "http://www.w3.org/Graphics/SVG/1.1/DTD/svg11.dtd">
<svg version="1.1" xmlns="http://www.w3.org/2000/svg" xmlns:xlink="http://www.w3.org/1999/xlink" x="0px" y="0px" width="32.001px" height="32.002px" viewBox="0 0 32 32" style="enable-background:new 0 0 32 32;" xml:space="preserve">
	<path d="M28.864,16.297c-0.162,0-0.294,0.132-0.294,0.294c0,0.08,0.031,0.152,0.084,0.206c-0.177,0.141-0.491,0.257-0.823,0.375 c-0.688,0.247-1.464,0.527-1.64,1.188c-0.25,0.94-1.425,2.24-1.754,2.592c-0.021-0.014-0.038-0.026-0.06-0.039 c-0.001,0.001-0.004,0.002-0.005,0.003c-0.016-0.013-0.034-0.022-0.05-0.035c-0.001,0-0.002-0.001-0.003-0.002 c0.254-0.403,0.928-1.579,1.092-2.953c0.148-1.25,1.274-1.921,1.804-2.17c0.05,0.09,0.144,0.153,0.253,0.153 c0.162,0,0.294-0.132,0.294-0.294c0-0.163-0.132-0.294-0.294-0.294c-0.163,0-0.294,0.132-0.294,0.294 c0,0.004,0.002,0.008,0.003,0.013c-0.544,0.253-1.738,0.954-1.896,2.282c-0.161,1.349-0.825,2.506-1.073,2.897 c-0.135-0.074-0.288-0.119-0.452-0.119c-0.454,0-0.831,0.311-0.943,0.729l-0.982,0.252c0,0,1.965-15.779-10.565-21.668 c-1.285,0.312-0.4,7.397-0.611,8.271c-0.21,0.875-3.641,5.634-0.813,7.621c2.828,1.987,10.178,6.979,10.178,6.979 s-1.893,0.333-3.885-1.799c-4.472-5.706-12.32-5.438-12.884,0.457c0.409,2.84,1.306,5.229,0.354,6.5 c-0.952,1.271-1.151,2.799,0.244,3.264c4.782,2.989,14.063-8.074,14.927-7.033c-4.81,4.699-2.418,7.887-1.545,7.737 c0.874-0.15,0.232-6.245,2.01-6.808c1.511-0.218,3.725-2.943,3.725-2.943v-0.002c0.178,0.244,0.465,0.406,0.791,0.406 c0.541,0,0.979-0.439,0.979-0.979c0-0.099-0.02-0.19-0.045-0.278c-0.014-0.05-0.039-0.14-0.077-0.186 c-0.027-0.051-0.06-0.1-0.096-0.145c0.001,0,0.002-0.002,0.003-0.002c0.016-0.01,0.029-0.018,0.045-0.026 c-0.005-0.002-0.009-0.005-0.013-0.009c0.357-0.381,1.51-1.662,1.769-2.631c0.156-0.593,0.899-0.86,1.556-1.096 c0.375-0.135,0.711-0.259,0.899-0.43c0.027,0.009,0.057,0.018,0.088,0.018c0.163,0,0.294-0.132,0.294-0.294 C29.157,16.432,29.026,16.297,28.864,16.297z" fill="#a5c85a"/>
</svg>
